<svg xmlns="http://www.w3.org/2000/svg" viewBox="85 0 174 174" width="174" height="174">
  <defs><style>.cls-1,.cls-2,.cls-3,.cls-4{fill:#fcf9f4;stroke:#1c1c19;stroke-miterlimit:10;}.cls-1,.cls-3{stroke-width:4px;}.cls-2,.cls-4{stroke-width:5px;}.cls-3,.cls-4{fill-rule:evenodd;}</style></defs>
  <!-- Center section of the logo: electrodes + traces -->
  <path class="cls-3" d="M100.77,155.7c0-1.17,3.81-2.13,8.5-2.13s8.5.95,8.5,2.13V9.7c0-1.17-3.81-2.13-8.5-2.13s-8.5.95-8.5,2.13v146Z"/>
  <ellipse class="cls-1" cx="109.27" cy="155.7" rx="8.5" ry="2.13"/>
  <path class="cls-3" d="M137.62,169.87c0-1.17,3.81-2.13,8.5-2.13s8.5.95,8.5,2.13V18.2c0-1.17-3.81-2.13-8.5-2.13s-8.5.95-8.5,2.13v151.67Z"/>
  <path class="cls-3" d="M137.62,169.87c0,1.17,3.81,2.13,8.5,2.13s8.5-.95,8.5-2.13-3.81-2.13-8.5-2.13-8.5.95-8.5,2.13Z"/>
  <path class="cls-3" d="M174.48,155.34c0-1.37,4.44-2.48,9.92-2.48s9.92,1.11,9.92,2.48V10.05c0-1.37-4.44-2.48-9.92-2.48s-9.92,1.11-9.92,2.48v145.29Z"/>
  <path class="cls-3" d="M174.48,155.34c0,1.37,4.44,2.48,9.92,2.48s9.92-1.11,9.92-2.48-4.44-2.48-9.92-2.48-9.92,1.11-9.92,2.48Z"/>
  <path class="cls-3" d="M203.15,165.16c.09-1.24,4.18-1.97,9.14-1.62,4.96.34,8.91,1.63,8.83,2.87l10.03-144.81c.09-1.24-3.87-2.52-8.83-2.87-4.96-.34-9.05.38-9.14,1.62l-10.03,144.81Z"/>
  <path class="cls-3" d="M203.15,165.16c-.09,1.24,3.87,2.52,8.83,2.87,4.96.34,9.05-.38,9.14-1.62.09-1.24-3.87-2.52-8.83-2.87-4.96-.34-9.05.38-9.14,1.62Z"/>
  <path class="cls-3" d="M144.17,127.19c.32-1.2,4.47-1.15,9.28.12,4.81,1.27,8.45,3.27,8.13,4.47l25.5-96.81c.32-1.2-3.32-3.2-8.13-4.47-4.81-1.27-8.96-1.32-9.28-.12l-25.51,96.81Z"/>
  <path class="cls-3" d="M144.17,127.19c-.32,1.2,3.32,3.2,8.13,4.47,4.81,1.27,8.96,1.32,9.28.12.32-1.2-3.32-3.2-8.13-4.47-4.81-1.27-8.96-1.32-9.28-.12Z"/>
  <path class="cls-3" d="M98.54,139.88c.24-1.22,4.39-1.44,9.27-.5,4.88.95,8.65,2.7,8.41,3.92L142.75,6.51c.24-1.22-3.53-2.98-8.41-3.92-4.88-.95-9.03-.73-9.27.5l-26.54,136.8Z"/>
  <path class="cls-3" d="M98.54,139.88c-.24,1.22,3.53,2.98,8.41,3.92,4.88.95,9.03.73,9.27-.5.24-1.22-3.53-2.98-8.41-3.92-4.88-.95-9.03-.73-9.27.5Z"/>
  <path class="cls-3" d="M181.6,141.54c.29-1.21,4.44-1.26,9.28-.11,4.84,1.15,8.53,3.06,8.24,4.27l29.15-122.86c.29-1.21-3.4-3.12-8.24-4.27-4.84-1.15-8.99-1.1-9.28.11l-29.15,122.86Z"/>
  <path class="cls-3" d="M181.6,141.54c-.29,1.21,3.4,3.12,8.24,4.27,4.84,1.15,8.99,1.1,9.28-.11.29-1.21-3.4-3.12-8.24-4.27-4.84-1.15-8.99-1.1-9.28.11Z"/>
</svg>
